<svg xmlns="http://www.w3.org/2000/svg" xmlns:v="https://svgstorm.com"
viewBox = "0 0 1024 1024"
width="1024"
height="1024">
<g fill="#000000" fill-opacity="0.00" stroke="None">
<path d="
M 0.00 1024.00 
L 1024.00 1024.00
L 1024.00 0.00
L 0.00 0.00
L 0.00 1024.00
M 527.00 36.00 
C 686.19 40.28 839.60 130.85 919.92 271.08 C 1007.54 418.50 1002.34 618.69 907.23 761.23 C 817.74 899.23 660.06 981.81 498.00 977.00 C 339.31 971.58 185.11 882.03 105.70 741.31 C 17.30 595.34 20.61 395.84 115.30 253.30 C 204.03 113.54 363.03 31.01 527.00 36.00 Z"/>
</g>
<g fill="#1F202F" fill-opacity="1.00" stroke="None">
<path d="
M 527.00 36.00 
C 363.03 31.01 204.03 113.54 115.30 253.30 C 20.61 395.84 17.30 595.34 105.70 741.31 C 185.11 882.03 339.31 971.58 498.00 977.00 C 660.06 981.81 817.74 899.23 907.23 761.23 C 1002.34 618.69 1007.54 418.50 919.92 271.08 C 839.60 130.85 686.19 40.28 527.00 36.00
M 934.00 354.00 
C 934.08 354.49 934.00 355.00 934.00 355.00
C 934.39 354.79 935.00 355.00 935.00 355.00
C 971.67 448.78 970.01 562.30 936.00 657.00
C 875.04 831.52 697.41 959.04 512.00 956.00 C 326.60 958.70 148.97 830.58 88.00 656.00
C 54.11 561.05 51.81 446.48 90.00 353.00
C 151.37 180.51 328.09 55.28 512.00 60.00 C 696.14 55.05 873.72 180.72 934.00 354.00 Z"/>
</g>
<g fill="#FB272E" fill-opacity="1.00" stroke="None">
<path d="
M 90.00 353.00 
C 89.82 353.43 90.00 354.00 90.00 354.00
C 143.33 354.00 196.67 354.00 250.00 354.00
C 250.50 354.00 251.84 353.77 252.00 354.00
C 250.78 323.52 251.58 292.01 271.25 268.25 C 286.43 246.22 310.77 232.20 336.00 227.00
C 394.37 222.51 454.80 226.20 514.00 225.00 C 573.14 226.77 634.09 221.31 692.00 228.00
C 715.96 233.77 738.46 248.15 753.25 268.75 C 771.86 292.34 773.52 322.96 772.00 353.00
C 772.00 353.50 772.00 354.00 772.00 354.00
C 772.25 354.25 773.00 354.00 773.00 354.00
C 826.67 354.00 880.33 354.00 934.00 354.00
C 873.72 180.72 696.14 55.05 512.00 60.00 C 328.09 55.28 151.37 180.51 90.00 353.00 Z"/>
</g>
<g fill="#021527" fill-opacity="1.00" stroke="None">
<path d="
M 336.00 227.00 
C 336.63 230.76 348.64 225.01 354.00 227.00 C 466.34 227.61 581.31 225.74 692.00 228.00
C 634.09 221.31 573.14 226.77 514.00 225.00 C 454.80 226.20 394.37 222.51 336.00 227.00 Z"/>
</g>
<g fill="#1E202F" fill-opacity="1.00" stroke="None">
<path d="
M 252.00 354.00 
C 252.00 354.50 252.00 355.00 252.00 355.00
C 254.33 404.76 252.33 456.48 253.00 507.00 C 255.09 556.57 248.11 608.40 258.00 656.00
C 270.91 694.60 310.08 723.55 352.00 720.00 C 457.66 720.00 563.33 720.00 669.00 720.00 C 710.97 724.37 753.17 697.10 765.00 657.00
C 777.23 609.95 768.24 557.46 771.00 508.00 C 771.67 456.50 769.67 403.68 772.00 353.00
C 773.52 322.96 771.86 292.34 753.25 268.75 C 738.46 248.15 715.96 233.77 692.00 228.00
C 581.31 225.74 466.34 227.61 354.00 227.00 C 348.64 225.01 336.63 230.76 336.00 227.00
C 310.77 232.20 286.43 246.22 271.25 268.25 C 251.58 292.01 250.78 323.52 252.00 354.00
M 744.00 326.00 
C 746.33 373.77 744.33 423.48 745.00 472.00 C 743.68 487.68 747.65 505.91 743.00 520.00
C 589.91 521.81 434.23 521.37 280.78 520.22 C 280.13 451.40 278.17 380.20 281.78 311.78 C 288.24 279.91 318.53 254.88 351.00 254.00 C 449.67 254.00 548.33 254.00 647.00 254.00 C 693.32 245.22 744.14 277.38 744.00 326.00
M 349.00 623.00 
C 348.78 632.86 349.44 642.93 348.67 652.67 C 342.64 656.17 329.17 657.24 324.08 651.92 C 323.89 621.28 324.05 590.64 324.00 560.00
C 348.35 554.58 384.14 550.90 397.92 577.08 C 410.28 607.53 376.34 628.57 349.00 623.00
M 596.00 615.00 
C 601.96 628.14 615.21 639.42 617.22 653.22 C 610.89 656.11 598.25 656.45 591.25 652.75 C 588.03 645.91 583.03 640.09 579.70 633.31 C 574.92 627.14 572.38 616.75 562.00 620.00
C 562.00 630.00 562.00 640.00 562.00 650.00 C 561.37 658.81 543.87 655.54 538.25 652.75 C 537.67 621.87 538.16 590.91 538.00 560.00
C 558.62 555.23 584.32 552.17 602.25 565.75 C 620.09 576.97 616.27 608.60 596.00 615.00
M 625.00 560.00 
C 649.33 554.57 679.71 552.30 699.25 570.75 C 715.98 589.10 716.17 620.35 700.25 639.25 C 681.86 659.60 650.00 656.55 625.31 652.69 C 624.59 621.85 625.20 590.89 625.00 560.00
M 426.00 559.00 
C 431.07 578.80 433.90 599.84 440.00 619.00
C 444.12 605.96 448.31 592.71 452.78 579.78 C 451.10 561.98 480.32 561.86 479.78 579.22 C 483.14 592.74 488.34 605.59 492.00 619.00
C 496.85 601.63 500.63 583.11 504.00 565.00 C 505.56 554.16 522.28 559.94 530.00 560.00
C 524.92 588.10 517.57 615.65 508.69 642.69 C 510.44 659.61 479.98 660.50 479.68 644.32 C 475.01 631.27 470.60 618.12 466.00 605.00
C 460.35 618.90 456.27 634.18 450.22 648.22 C 448.95 659.53 434.70 653.51 427.00 655.00
C 416.79 627.61 409.00 599.26 403.67 570.33 C 395.67 554.49 416.49 559.65 426.00 559.00 Z"/>
</g>
<g fill="#140808" fill-opacity="1.00" stroke="None">
<path d="
M 743.00 520.00 
C 745.33 455.84 743.33 390.58 744.00 326.00
C 744.14 277.38 693.32 245.22 647.00 254.00 C 548.33 254.00 449.67 254.00 351.00 254.00 C 318.53 254.88 288.24 279.91 281.78 311.78 C 278.17 380.20 280.13 451.40 280.78 520.22 C 434.23 521.37 589.91 521.81 743.00 520.00
M 300.00 279.00 
C 301.57 276.72 303.67 274.43 306.00 273.00
C 318.02 263.42 332.00 257.38 347.00 255.00
C 347.45 254.85 348.50 255.00 349.00 255.00
C 436.67 255.00 524.33 255.00 612.00 255.00 C 649.70 256.54 693.34 246.70 721.25 276.75 C 751.98 304.55 741.07 349.11 743.00 387.00 C 743.00 431.00 743.00 475.00 743.00 519.00
C 589.00 519.00 435.00 519.00 281.00 519.00
C 281.00 476.00 281.00 433.00 281.00 390.00 C 283.16 352.08 272.16 308.44 300.00 279.00 Z"/>
</g>
<g fill="#5EF1C3" fill-opacity="1.00" stroke="None">
<path d="
M 306.00 273.00 
C 304.43 275.28 302.33 277.57 300.00 279.00
C 272.16 308.44 283.16 352.08 281.00 390.00 C 281.00 433.00 281.00 476.00 281.00 519.00
C 435.00 519.00 589.00 519.00 743.00 519.00
C 743.00 475.00 743.00 431.00 743.00 387.00 C 741.07 349.11 751.98 304.55 721.25 276.75 C 693.34 246.70 649.70 256.54 612.00 255.00 C 524.33 255.00 436.67 255.00 349.00 255.00
C 456.96 257.55 567.08 254.89 675.67 256.33 C 722.64 260.36 750.18 309.00 742.00 354.00 C 742.00 408.67 742.00 463.33 742.00 518.00
C 589.00 518.00 436.00 518.00 283.00 518.00
C 283.00 456.00 283.00 394.00 283.00 332.00 C 280.76 306.92 293.34 282.95 314.08 269.08 C 323.19 260.63 337.86 260.07 347.00 255.00
C 332.00 257.38 318.02 263.42 306.00 273.00 Z"/>
</g>
<g fill="#4BEC9B" fill-opacity="1.00" stroke="None">
<path d="
M 349.00 255.00 
C 348.50 255.00 347.45 254.85 347.00 255.00
C 337.86 260.07 323.19 260.63 314.08 269.08 C 293.34 282.95 280.76 306.92 283.00 332.00 C 283.00 394.00 283.00 456.00 283.00 518.00
C 436.00 518.00 589.00 518.00 742.00 518.00
C 742.00 463.33 742.00 408.67 742.00 354.00 C 750.18 309.00 722.64 260.36 675.67 256.33 C 567.08 254.89 456.96 257.55 349.00 255.00
M 339.00 467.00 
C 339.23 466.66 339.00 466.00 339.00 466.00
C 374.68 412.33 414.85 356.80 454.00 304.00
C 454.32 303.80 454.74 303.23 455.00 303.00
C 462.90 305.57 475.24 313.40 480.64 320.70 C 441.34 375.40 402.40 430.34 363.00 485.00
C 355.63 478.75 343.46 473.55 339.00 467.00
M 446.00 467.00 
C 445.85 466.55 445.88 465.47 446.00 465.00
C 473.96 425.13 501.66 384.69 531.00 346.00
C 531.32 345.81 531.75 345.26 532.00 345.00
C 534.69 336.44 543.88 327.60 548.92 318.92 C 553.60 309.45 566.09 298.78 575.25 309.75 C 614.82 361.32 652.01 414.50 689.92 467.08 C 681.91 473.66 671.52 481.79 661.78 483.22 C 629.42 439.83 598.93 394.75 566.00 352.00
C 536.19 393.86 506.11 435.46 476.08 477.08 C 468.64 492.15 454.65 471.87 446.00 467.00 Z"/>
</g>
<g fill="#121E0E" fill-opacity="1.00" stroke="None">
<path d="
M 300.00 279.00 
C 302.33 277.57 304.43 275.28 306.00 273.00
C 303.67 274.43 301.57 276.72 300.00 279.00 Z"/>
</g>
<g fill="#5AE9C0" fill-opacity="1.00" stroke="None">
<path d="
M 455.00 303.00 
C 463.52 308.35 472.00 314.24 480.00 320.00
C 440.51 373.73 401.98 428.69 363.00 483.00
C 354.59 478.27 347.22 472.01 339.00 467.00
C 343.46 473.55 355.63 478.75 363.00 485.00
C 402.40 430.34 441.34 375.40 480.64 320.70 C 475.24 313.40 462.90 305.57 455.00 303.00 Z"/>
</g>
<g fill="#120809" fill-opacity="1.00" stroke="None">
<path d="
M 454.00 304.00 
C 416.42 358.45 377.27 412.24 339.00 466.00
C 339.00 466.00 339.23 466.66 339.00 467.00
C 347.22 472.01 354.59 478.27 363.00 483.00
C 401.98 428.69 440.51 373.73 480.00 320.00
C 472.00 314.24 463.52 308.35 455.00 303.00
C 454.74 303.23 454.32 303.80 454.00 304.00
M 478.00 319.00 
C 441.97 371.67 403.35 423.22 366.70 475.70 C 360.07 487.59 349.68 469.02 341.00 467.00
C 377.47 412.26 417.76 359.44 455.00 305.00
C 463.01 308.68 469.79 315.65 478.00 319.00 Z"/>
</g>
<g fill="#5BE8BE" fill-opacity="1.00" stroke="None">
<path d="
M 339.00 466.00 
C 377.27 412.24 416.42 358.45 454.00 304.00
C 414.85 356.80 374.68 412.33 339.00 466.00 Z"/>
</g>
<g fill="#1F202F" fill-opacity="1.00" stroke="None">
<path d="
M 478.00 319.00 
C 469.79 315.65 463.01 308.68 455.00 305.00
C 417.76 359.44 377.47 412.26 341.00 467.00
C 349.68 469.02 360.07 487.59 366.70 475.70 C 403.35 423.22 441.97 371.67 478.00 319.00 Z"/>
</g>
<g fill="#5CEAC3" fill-opacity="1.00" stroke="None">
<path d="
M 532.00 345.00 
C 543.12 332.80 549.11 314.09 564.22 306.22 C 581.86 309.62 587.45 331.17 598.77 343.23 C 629.07 384.64 659.63 426.20 689.00 468.00
C 680.05 472.19 671.98 478.56 663.00 483.00
C 630.47 438.78 599.24 393.42 566.00 350.00
C 534.44 394.43 501.75 438.32 471.00 483.00
C 462.05 479.10 454.75 471.23 446.00 467.00
C 454.65 471.87 468.64 492.15 476.08 477.08 C 506.11 435.46 536.19 393.86 566.00 352.00
C 598.93 394.75 629.42 439.83 661.78 483.22 C 671.52 481.79 681.91 473.66 689.92 467.08 C 652.01 414.50 614.82 361.32 575.25 309.75 C 566.09 298.78 553.60 309.45 548.92 318.92 C 543.88 327.60 534.69 336.44 532.00 345.00 Z"/>
</g>
<g fill="#120908" fill-opacity="1.00" stroke="None">
<path d="
M 532.00 345.00 
C 531.75 345.26 531.32 345.81 531.00 346.00
C 503.24 385.99 475.56 426.45 446.00 465.00
C 445.88 465.47 445.85 466.55 446.00 467.00
C 454.75 471.23 462.05 479.10 471.00 483.00
C 501.75 438.32 534.44 394.43 566.00 350.00
C 599.24 393.42 630.47 438.78 663.00 483.00
C 671.98 478.56 680.05 472.19 689.00 468.00
C 659.63 426.20 629.07 384.64 598.77 343.23 C 587.45 331.17 581.86 309.62 564.22 306.22 C 549.11 314.09 543.12 332.80 532.00 345.00
M 687.00 468.00 
C 677.93 468.89 667.22 486.34 660.23 476.77 C 628.36 434.19 598.60 389.82 566.00 348.00
C 533.79 392.26 502.38 436.87 470.00 481.00
C 462.01 477.43 456.07 470.13 448.00 467.00
C 475.58 425.70 505.76 385.53 534.25 344.25 C 545.57 332.87 550.50 310.44 568.00 308.00 C 582.25 316.23 588.58 333.57 599.25 345.75 C 628.40 386.50 659.06 426.68 687.00 468.00 Z"/>
</g>
<g fill="#1F202F" fill-opacity="1.00" stroke="None">
<path d="
M 687.00 468.00 
C 659.06 426.68 628.40 386.50 599.25 345.75 C 588.58 333.57 582.25 316.23 568.00 308.00 C 550.50 310.44 545.57 332.87 534.25 344.25 C 505.76 385.53 475.58 425.70 448.00 467.00
C 456.07 470.13 462.01 477.43 470.00 481.00
C 502.38 436.87 533.79 392.26 566.00 348.00
C 598.60 389.82 628.36 434.19 660.23 476.77 C 667.22 486.34 677.93 468.89 687.00 468.00 Z"/>
</g>
<g fill="#181123" fill-opacity="1.00" stroke="None">
<path d="
M 743.00 520.00 
C 747.65 505.91 743.68 487.68 745.00 472.00 C 744.33 423.48 746.33 373.77 744.00 326.00
C 743.33 390.58 745.33 455.84 743.00 520.00 Z"/>
</g>
<g fill="#5CE9C1" fill-opacity="1.00" stroke="None">
<path d="
M 446.00 465.00 
C 475.56 426.45 503.24 385.99 531.00 346.00
C 501.66 384.69 473.96 425.13 446.00 465.00 Z"/>
</g>
<g fill="#2F0C09" fill-opacity="1.00" stroke="None">
<path d="
M 88.00 656.00 
C 88.80 656.13 89.11 657.09 90.00 657.00
C 54.50 562.06 54.24 448.59 90.00 354.00
C 90.00 354.00 89.82 353.43 90.00 353.00
C 51.81 446.48 54.11 561.05 88.00 656.00 Z"/>
</g>
<g fill="#340101" fill-opacity="1.00" stroke="None">
<path d="
M 765.00 657.00 
C 765.04 656.87 766.00 657.00 766.00 657.00
C 766.35 656.97 766.88 656.35 767.00 656.00
C 777.35 608.87 769.59 557.14 772.00 508.00 C 772.00 456.67 772.00 405.33 772.00 354.00
C 772.00 354.00 772.00 353.50 772.00 353.00
C 769.67 403.68 771.67 456.50 771.00 508.00 C 768.24 557.46 777.23 609.95 765.00 657.00 Z"/>
</g>
<g fill="#004593" fill-opacity="1.00" stroke="None">
<path d="
M 90.00 657.00 
C 90.11 657.35 90.89 657.74 91.00 658.00
C 91.22 657.96 91.70 657.22 92.00 657.00
C 146.10 654.67 202.15 656.67 257.00 656.00
C 246.78 608.84 254.31 557.16 252.00 508.00 C 252.00 457.00 252.00 406.00 252.00 355.00
C 252.00 355.00 252.00 354.50 252.00 354.00
C 251.84 353.77 250.50 354.00 250.00 354.00
C 197.73 355.67 142.20 355.67 90.00 354.00
C 54.24 448.59 54.50 562.06 90.00 657.00 Z"/>
</g>
<g fill="#0039C1" fill-opacity="1.00" stroke="None">
<path d="
M 250.00 354.00 
C 196.67 354.00 143.33 354.00 90.00 354.00
C 142.20 355.67 197.73 355.67 250.00 354.00 Z"/>
</g>
<g fill="#004593" fill-opacity="1.00" stroke="None">
<path d="
M 767.00 656.00 
C 823.00 656.00 879.00 656.00 935.00 656.00
C 969.63 561.29 968.71 449.75 935.00 355.00
C 935.00 355.00 934.39 354.79 934.00 355.00
C 881.64 354.34 825.49 356.33 773.00 354.00
C 773.00 354.00 772.25 354.25 772.00 354.00
C 772.00 405.33 772.00 456.67 772.00 508.00 C 769.59 557.14 777.35 608.87 767.00 656.00 Z"/>
</g>
<g fill="#003AC0" fill-opacity="1.00" stroke="None">
<path d="
M 934.00 355.00 
C 934.00 355.00 934.08 354.49 934.00 354.00
C 880.33 354.00 826.67 354.00 773.00 354.00
C 825.49 356.33 881.64 354.34 934.00 355.00 Z"/>
</g>
<g fill="#340101" fill-opacity="1.00" stroke="None">
<path d="
M 257.00 656.00 
C 257.25 655.75 258.00 656.00 258.00 656.00
C 248.11 608.40 255.09 556.57 253.00 507.00 C 252.33 456.48 254.33 404.76 252.00 355.00
C 252.00 406.00 252.00 457.00 252.00 508.00 C 254.31 557.16 246.78 608.84 257.00 656.00 Z"/>
</g>
<g fill="#2F0C09" fill-opacity="1.00" stroke="None">
<path d="
M 935.00 656.00 
C 934.92 656.49 935.00 657.00 935.00 657.00
C 935.50 657.00 936.00 657.00 936.00 657.00
C 970.01 562.30 971.67 448.78 935.00 355.00
C 968.71 449.75 969.63 561.29 935.00 656.00 Z"/>
</g>
<g fill="#04050A" fill-opacity="1.00" stroke="None">
<path d="
M 349.00 623.00 
C 376.34 628.57 410.28 607.53 397.92 577.08 C 384.14 550.90 348.35 554.58 324.00 560.00
C 324.05 590.64 323.89 621.28 324.08 651.92 C 329.17 657.24 342.64 656.17 348.67 652.67 C 349.44 642.93 348.78 632.86 349.00 623.00
M 361.00 621.00 
C 357.25 623.22 351.51 621.41 347.00 622.00
C 347.00 632.33 347.00 642.67 347.00 653.00
C 340.00 653.00 333.00 653.00 326.00 653.00
C 326.00 622.00 326.00 591.00 326.00 560.00
C 348.95 558.05 379.63 552.18 394.77 574.23 C 408.08 597.47 386.28 624.43 361.00 621.00 Z"/>
</g>
<g fill="#000002" fill-opacity="1.00" stroke="None">
<path d="
M 596.00 615.00 
C 616.27 608.60 620.09 576.97 602.25 565.75 C 584.32 552.17 558.62 555.23 538.00 560.00
C 538.16 590.91 537.67 621.87 538.25 652.75 C 543.87 655.54 561.37 658.81 562.00 650.00 C 562.00 640.00 562.00 630.00 562.00 620.00
C 572.38 616.75 574.92 627.14 579.70 633.31 C 583.03 640.09 588.03 645.91 591.25 652.75 C 598.25 656.45 610.89 656.11 617.22 653.22 C 615.21 639.42 601.96 628.14 596.00 615.00
M 594.00 615.00 
C 601.25 627.94 611.66 639.17 617.00 653.00
C 605.54 652.47 590.67 656.97 587.08 642.92 C 582.16 634.54 575.96 626.75 572.00 618.00
C 568.33 618.00 564.67 618.00 561.00 618.00
C 561.00 629.67 561.00 641.33 561.00 653.00
C 553.67 653.00 546.33 653.00 539.00 653.00
C 539.00 626.00 539.00 599.00 539.00 572.00 C 534.18 555.15 554.45 559.17 565.00 558.00 C 586.36 555.37 615.43 566.01 612.00 592.00 C 611.11 602.23 603.58 611.31 594.00 615.00 Z"/>
</g>
<g fill="#020206" fill-opacity="1.00" stroke="None">
<path d="
M 625.00 560.00 
C 625.20 590.89 624.59 621.85 625.31 652.69 C 650.00 656.55 681.86 659.60 700.25 639.25 C 716.17 620.35 715.98 589.10 699.25 570.75 C 679.71 552.30 649.33 554.57 625.00 560.00
M 627.00 560.00 
C 651.27 557.58 680.77 553.55 699.25 572.75 C 723.36 600.14 706.88 653.72 667.00 653.00 C 654.45 654.05 636.83 656.00 627.03 649.97 C 626.96 619.98 627.02 589.99 627.00 560.00 Z"/>
</g>
<g fill="#FDFDFD" fill-opacity="1.00" stroke="None">
<path d="
M 347.00 622.00 
C 350.75 619.78 356.49 621.59 361.00 621.00
C 386.28 624.43 408.08 597.47 394.77 574.23 C 379.63 552.18 348.95 558.05 326.00 560.00
C 326.00 591.00 326.00 622.00 326.00 653.00
C 333.00 653.00 340.00 653.00 347.00 653.00
C 347.00 642.67 347.00 632.33 347.00 622.00
M 347.00 605.00 
C 347.00 595.33 347.00 585.67 347.00 576.00
C 358.14 575.04 375.71 575.33 376.00 590.00 C 375.40 604.51 358.21 605.28 347.00 605.00 Z"/>
</g>
<g fill="#FBFBFB" fill-opacity="1.00" stroke="None">
<path d="
M 594.00 615.00 
C 603.58 611.31 611.11 602.23 612.00 592.00 C 615.43 566.01 586.36 555.37 565.00 558.00 C 554.45 559.17 534.18 555.15 539.00 572.00 C 539.00 599.00 539.00 626.00 539.00 653.00
C 546.33 653.00 553.67 653.00 561.00 653.00
C 561.00 641.33 561.00 629.67 561.00 618.00
C 564.67 618.00 568.33 618.00 572.00 618.00
C 575.96 626.75 582.16 634.54 587.08 642.92 C 590.67 656.97 605.54 652.47 617.00 653.00
C 611.66 639.17 601.25 627.94 594.00 615.00
M 561.00 602.00 
C 561.00 593.33 561.00 584.67 561.00 576.00
C 571.53 575.51 588.93 574.69 589.00 589.00 C 588.94 603.31 571.58 602.62 561.00 602.00 Z"/>
</g>
<g fill="#FDFDFD" fill-opacity="1.00" stroke="None">
<path d="
M 627.00 560.00 
C 627.02 589.99 626.96 619.98 627.03 649.97 C 636.83 656.00 654.45 654.05 667.00 653.00 C 706.88 653.72 723.36 600.14 699.25 572.75 C 680.77 553.55 651.27 557.58 627.00 560.00
M 648.00 634.00 
C 648.00 615.33 648.00 596.67 648.00 578.00
C 666.55 571.38 691.70 583.55 688.00 606.00 C 691.05 627.98 666.36 640.11 648.00 634.00 Z"/>
</g>
<g fill="#010204" fill-opacity="1.00" stroke="None">
<path d="
M 426.00 559.00 
C 416.49 559.65 395.67 554.49 403.67 570.33 C 409.00 599.26 416.79 627.61 427.00 655.00
C 434.70 653.51 448.95 659.53 450.22 648.22 C 456.27 634.18 460.35 618.90 466.00 605.00
C 470.60 618.12 475.01 631.27 479.68 644.32 C 479.98 660.50 510.44 659.61 508.69 642.69 C 517.57 615.65 524.92 588.10 530.00 560.00
C 522.28 559.94 505.56 554.16 504.00 565.00 C 500.63 583.11 496.85 601.63 492.00 619.00
C 488.34 605.59 483.14 592.74 479.78 579.22 C 480.32 561.86 451.10 561.98 452.78 579.78 C 448.31 592.71 444.12 605.96 440.00 619.00
C 433.90 599.84 431.07 578.80 426.00 559.00
M 425.00 560.00 
C 429.11 581.80 434.57 603.26 439.00 625.00
C 443.31 615.21 445.49 603.87 449.78 593.78 C 455.02 585.22 451.72 565.62 466.00 568.00 C 480.05 565.64 477.55 585.03 482.32 593.68 C 486.45 603.85 488.54 615.27 493.00 625.00
C 496.32 606.80 500.83 588.79 504.78 570.78 C 502.39 555.87 518.31 560.54 528.00 560.00
C 523.37 591.90 513.66 622.47 504.00 653.00
C 497.33 653.00 490.67 653.00 484.00 653.00
C 478.32 634.98 471.41 617.19 466.00 599.00
C 461.31 614.18 455.62 629.85 450.07 645.07 C 449.34 657.23 435.44 651.93 427.00 653.00
C 417.45 622.48 408.48 591.72 403.00 560.00
C 410.33 560.00 417.67 560.00 425.00 560.00 Z"/>
</g>
<g fill="#FCFCFC" fill-opacity="1.00" stroke="None">
<path d="
M 425.00 560.00 
C 417.67 560.00 410.33 560.00 403.00 560.00
C 408.48 591.72 417.45 622.48 427.00 653.00
C 435.44 651.93 449.34 657.23 450.07 645.07 C 455.62 629.85 461.31 614.18 466.00 599.00
C 471.41 617.19 478.32 634.98 484.00 653.00
C 490.67 653.00 497.33 653.00 504.00 653.00
C 513.66 622.47 523.37 591.90 528.00 560.00
C 518.31 560.54 502.39 555.87 504.78 570.78 C 500.83 588.79 496.32 606.80 493.00 625.00
C 488.54 615.27 486.45 603.85 482.32 593.68 C 477.55 585.03 480.05 565.64 466.00 568.00 C 451.72 565.62 455.02 585.22 449.78 593.78 C 445.49 603.87 443.31 615.21 439.00 625.00
C 434.57 603.26 429.11 581.80 425.00 560.00 Z"/>
</g>
<g fill="#010104" fill-opacity="1.00" stroke="None">
<path d="
M 347.00 605.00 
C 358.21 605.28 375.40 604.51 376.00 590.00 C 375.71 575.33 358.14 575.04 347.00 576.00
C 347.00 585.67 347.00 595.33 347.00 605.00
M 349.00 603.00 
C 349.00 594.33 349.00 585.67 349.00 577.00
C 358.52 576.46 374.79 576.93 374.00 590.00 C 374.77 603.00 358.59 603.74 349.00 603.00 Z"/>
</g>
<g fill="#000001" fill-opacity="1.00" stroke="None">
<path d="
M 561.00 602.00 
C 571.58 602.62 588.94 603.31 589.00 589.00 C 588.93 574.69 571.53 575.51 561.00 576.00
C 561.00 584.67 561.00 593.33 561.00 602.00
M 562.00 601.00 
C 562.00 593.00 562.00 585.00 562.00 577.00
C 571.72 576.83 587.16 576.23 587.99 589.01 C 587.13 601.70 571.78 601.38 562.00 601.00 Z"/>
</g>
<g fill="#1F212F" fill-opacity="1.00" stroke="None">
<path d="
M 349.00 603.00 
C 358.59 603.74 374.77 603.00 374.00 590.00 C 374.79 576.93 358.52 576.46 349.00 577.00
C 349.00 585.67 349.00 594.33 349.00 603.00 Z"/>
</g>
<g fill="#1E202E" fill-opacity="1.00" stroke="None">
<path d="
M 562.00 601.00 
C 571.78 601.38 587.13 601.70 587.99 589.01 C 587.16 576.23 571.72 576.83 562.00 577.00
C 562.00 585.00 562.00 593.00 562.00 601.00 Z"/>
</g>
<g fill="#000001" fill-opacity="1.00" stroke="None">
<path d="
M 648.00 578.00 
C 649.66 595.60 649.67 616.48 648.00 634.00
C 666.36 640.11 691.05 627.98 688.00 606.00 C 691.70 583.55 666.55 571.38 648.00 578.00
M 650.00 633.00 
C 650.00 614.67 650.00 596.33 650.00 578.00
C 668.19 574.71 688.76 584.44 687.00 605.00 C 689.21 625.85 669.12 637.41 650.00 633.00 Z"/>
</g>
<g fill="#484754" fill-opacity="1.00" stroke="None">
<path d="
M 648.00 634.00 
C 649.67 616.48 649.66 595.60 648.00 578.00
C 648.00 596.67 648.00 615.33 648.00 634.00 Z"/>
</g>
<g fill="#1F212F" fill-opacity="1.00" stroke="None">
<path d="
M 650.00 633.00 
C 669.12 637.41 689.21 625.85 687.00 605.00 C 688.76 584.44 668.19 574.71 650.00 578.00
C 650.00 596.33 650.00 614.67 650.00 633.00 Z"/>
</g>
<g fill="#8E8D94" fill-opacity="1.00" stroke="None">
<path d="
M 347.00 622.00 
C 351.51 621.41 357.25 623.22 361.00 621.00
C 356.49 621.59 350.75 619.78 347.00 622.00 Z"/>
</g>
<g fill="#020203" fill-opacity="1.00" stroke="None">
<path d="
M 936.00 657.00 
C 936.00 657.00 935.50 657.00 935.00 657.00
C 934.50 657.00 934.00 657.00 934.00 657.00
C 933.75 657.25 934.00 658.00 934.00 658.00
C 874.18 828.17 701.74 954.21 521.00 954.00
C 516.08 955.62 507.85 955.69 503.00 954.00
C 322.99 953.77 149.89 828.12 91.00 658.00
C 90.89 657.74 90.11 657.35 90.00 657.00
C 89.11 657.09 88.80 656.13 88.00 656.00
C 148.97 830.58 326.60 958.70 512.00 956.00 C 697.41 959.04 875.04 831.52 936.00 657.00 Z"/>
</g>
<g fill="#000B6D" fill-opacity="1.00" stroke="None">
<path d="
M 92.00 657.00 
C 147.00 657.00 202.00 657.00 257.00 657.00
C 256.81 656.59 257.00 656.00 257.00 656.00
C 202.15 656.67 146.10 654.67 92.00 657.00 Z"/>
</g>
<g fill="#000002" fill-opacity="1.00" stroke="None">
<path d="
M 257.00 657.00 
C 257.12 657.26 257.89 657.65 258.00 658.00
C 270.33 697.50 311.79 724.52 353.00 722.00 C 459.00 722.00 565.00 722.00 671.00 722.00 C 712.26 724.45 754.33 698.07 766.00 658.00
C 766.08 657.51 766.00 657.00 766.00 657.00
C 766.00 657.00 765.04 656.87 765.00 657.00
C 753.17 697.10 710.97 724.37 669.00 720.00 C 563.33 720.00 457.66 720.00 352.00 720.00 C 310.08 723.55 270.91 694.60 258.00 656.00
C 258.00 656.00 257.25 655.75 257.00 656.00
C 257.00 656.00 256.81 656.59 257.00 657.00 Z"/>
</g>
<g fill="#000C6E" fill-opacity="1.00" stroke="None">
<path d="
M 766.00 657.00 
C 766.00 657.00 766.08 657.51 766.00 658.00
C 766.25 658.25 767.00 658.00 767.00 658.00
C 821.77 655.67 878.48 657.67 934.00 657.00
C 934.00 657.00 934.50 657.00 935.00 657.00
C 935.00 657.00 934.92 656.49 935.00 656.00
C 879.00 656.00 823.00 656.00 767.00 656.00
C 766.88 656.35 766.35 656.97 766.00 657.00 Z"/>
</g>
<g fill="#3971AA" fill-opacity="1.00" stroke="None">
<path d="
M 91.00 658.00 
C 146.67 658.00 202.33 658.00 258.00 658.00
C 257.89 657.65 257.12 657.26 257.00 657.00
C 202.00 657.00 147.00 657.00 92.00 657.00
C 91.70 657.22 91.22 657.96 91.00 658.00 Z"/>
</g>
<g fill="#3770A9" fill-opacity="1.00" stroke="None">
<path d="
M 767.00 658.00 
C 822.67 658.00 878.33 658.00 934.00 658.00
C 934.00 658.00 933.75 657.25 934.00 657.00
C 878.48 657.67 821.77 655.67 767.00 658.00 Z"/>
</g>
<g fill="#FEFEFE" fill-opacity="1.00" stroke="None">
<path d="
M 503.00 954.00 
C 509.00 954.00 515.00 954.00 521.00 954.00
C 701.74 954.21 874.18 828.17 934.00 658.00
C 878.33 658.00 822.67 658.00 767.00 658.00
C 767.00 658.00 766.25 658.25 766.00 658.00
C 754.33 698.07 712.26 724.45 671.00 722.00 C 565.00 722.00 459.00 722.00 353.00 722.00 C 311.79 724.52 270.33 697.50 258.00 658.00
C 202.33 658.00 146.67 658.00 91.00 658.00
C 149.89 828.12 322.99 953.77 503.00 954.00 Z"/>
</g>
<g fill="#5C5961" fill-opacity="1.00" stroke="None">
<path d="
M 521.00 954.00 
C 515.00 954.00 509.00 954.00 503.00 954.00
C 507.85 955.69 516.08 955.62 521.00 954.00 Z"/>
</g>
</svg>